<svg width="256" height="256" viewBox="0 0 256 256" fill="none" xmlns="http://www.w3.org/2000/svg">
  <!-- Background Circle -->
  <circle cx="128" cy="128" r="120" fill="url(#gradient)" opacity="0.1"/>
  
  <!-- Main AI/Circuit Design -->
  <g transform="translate(128, 128)">
    <!-- Central Hub -->
    <circle cx="0" cy="0" r="32" fill="url(#gradient)"/>
    
    <!-- Circuit Lines -->
    <path d="M 0 -32 L 0 -64" stroke="url(#gradient)" stroke-width="6" stroke-linecap="round"/>
    <path d="M 0 32 L 0 64" stroke="url(#gradient)" stroke-width="6" stroke-linecap="round"/>
    <path d="M -32 0 L -64 0" stroke="url(#gradient)" stroke-width="6" stroke-linecap="round"/>
    <path d="M 32 0 L 64 0" stroke="url(#gradient)" stroke-width="6" stroke-linecap="round"/>
    
    <!-- Nodes -->
    <circle cx="0" cy="-64" r="12" fill="url(#gradient)"/>
    <circle cx="0" cy="64" r="12" fill="url(#gradient)"/>
    <circle cx="-64" cy="0" r="12" fill="url(#gradient)"/>
    <circle cx="64" cy="0" r="12" fill="url(#gradient)"/>
    
    <!-- Diagonal Connections -->
    <path d="M -22.6 -22.6 L -45.2 -45.2" stroke="url(#gradient)" stroke-width="4" stroke-linecap="round" opacity="0.7"/>
    <path d="M 22.6 -22.6 L 45.2 -45.2" stroke="url(#gradient)" stroke-width="4" stroke-linecap="round" opacity="0.7"/>
    <path d="M -22.6 22.6 L -45.2 45.2" stroke="url(#gradient)" stroke-width="4" stroke-linecap="round" opacity="0.7"/>
    <path d="M 22.6 22.6 L 45.2 45.2" stroke="url(#gradient)" stroke-width="4" stroke-linecap="round" opacity="0.7"/>
    
    <!-- Corner Nodes -->
    <circle cx="-45.2" cy="-45.2" r="8" fill="url(#gradient)" opacity="0.8"/>
    <circle cx="45.2" cy="-45.2" r="8" fill="url(#gradient)" opacity="0.8"/>
    <circle cx="-45.2" cy="45.2" r="8" fill="url(#gradient)" opacity="0.8"/>
    <circle cx="45.2" cy="45.2" r="8" fill="url(#gradient)" opacity="0.8"/>
    
    <!-- Inner Pattern -->
    <circle cx="0" cy="0" r="16" fill="white" opacity="0.9"/>
  </g>
  
  <!-- Gradient Definition -->
  <defs>
    <linearGradient id="gradient" x1="0%" y1="0%" x2="100%" y2="100%">
      <stop offset="0%" style="stop-color:#3b82f6;stop-opacity:1" />
      <stop offset="50%" style="stop-color:#8b5cf6;stop-opacity:1" />
      <stop offset="100%" style="stop-color:#ec4899;stop-opacity:1" />
    </linearGradient>
  </defs>
</svg>

